<svg width="1440" height="198" viewBox="0 0 1440 198" fill="none" xmlns="http://www.w3.org/2000/svg">
<path d="M0 82.9634L60 75.2781C120 67.8801 240 52.0786 360 40.8021C480 29.0946 600 21.9121 720 48.4874C840 75.0626 960 136.832 1080 148.109C1200 159.816 1320 121.031 1380 102.141L1440 82.9634V197.883H1380C1320 197.883 1200 197.883 1080 197.883C960 197.883 840 197.883 720 197.883C600 197.883 480 197.883 360 197.883C240 197.883 120 197.883 60 197.883H0V82.9634Z" fill="#71A463"/>
<path d="M0 62.1949L60 53.1207C120 44.3858 240 25.7286 360 12.4141C480 -1.40916 600 -9.8897 720 21.4883C840 52.8663 960 125.799 1080 139.113C1200 152.937 1320 107.142 1380 84.838L1440 62.1949V197.884H1380C1320 197.884 1200 197.884 1080 197.884C960 197.884 840 197.884 720 197.884C600 197.884 480 197.884 360 197.884C240 197.884 120 197.884 60 197.884H0V62.1949Z" fill="#71A463" fill-opacity="0.5"/>
<path d="M146.755 73.2721L200.64 64.9387C254.526 56.9168 362.296 39.7826 470.066 27.555C577.837 14.8602 685.607 7.07191 793.378 35.8885C901.148 64.705 1008.92 131.684 1116.69 143.912C1224.46 156.606 1332.23 114.55 1386.11 94.0667L1440 73.2721V197.884H1386.11C1332.23 197.884 1224.46 197.884 1116.69 197.884C1008.92 197.884 901.148 197.884 793.378 197.884C685.607 197.884 577.837 197.884 470.066 197.884C362.296 197.884 254.526 197.884 200.64 197.884H146.755V73.2721Z" fill="#71A463" fill-opacity="0.8"/>
</svg>
