<svg width="2560" height="2187" viewBox="0 0 2560 2187" fill="none" xmlns="http://www.w3.org/2000/svg">
<g clip-path="url(#clip0_37_1136)">
<rect width="2560" height="2187" fill="white"/>
<path d="M2560 279.846L2453.33 298.561C2346.67 316.576 2133.33 355.055 1920 382.515C1706.67 411.024 1493.33 428.515 1280 363.8C1066.67 299.086 853.333 148.668 640 121.208C426.667 92.6987 213.333 187.147 106.667 233.147L0 279.846V-0.000579834H106.667C213.333 -0.000579834 426.667 -0.000579834 640 -0.000579834C853.333 -0.000579834 1066.67 -0.000579834 1280 -0.000579834C1493.33 -0.000579834 1706.67 -0.000579834 1920 -0.000579834C2133.33 -0.000579834 2346.67 -0.000579834 2453.33 -0.000579834H2560V279.846Z" fill="#71A463"/>
<path d="M2560 330.421L2453.33 352.518C2346.67 373.789 2133.33 419.222 1920 451.645C1706.67 485.306 1493.33 505.958 1280 429.548C1066.67 353.138 853.333 175.536 640 143.114C426.667 109.452 213.333 220.969 106.667 275.282L0 330.421V-0.000152588H106.667C213.333 -0.000152588 426.667 -0.000152588 640 -0.000152588C853.333 -0.000152588 1066.67 -0.000152588 1280 -0.000152588C1493.33 -0.000152588 1706.67 -0.000152588 1920 -0.000152588C2133.33 -0.000152588 2346.67 -0.000152588 2453.33 -0.000152588H2560V330.421Z" fill="#71A463" fill-opacity="0.5"/>
<path d="M2299.1 303.448L2203.31 323.741C2107.51 343.276 1915.92 385 1724.33 414.776C1532.73 445.689 1341.14 464.655 1149.55 394.483C957.959 324.31 766.367 161.207 574.775 131.431C383.184 100.517 191.592 202.931 95.796 252.81L9.15527e-05 303.448V-0.000335693H95.796C191.592 -0.000335693 383.184 -0.000335693 574.775 -0.000335693C766.367 -0.000335693 957.959 -0.000335693 1149.55 -0.000335693C1341.14 -0.000335693 1532.73 -0.000335693 1724.33 -0.000335693C1915.92 -0.000335693 2107.51 -0.000335693 2203.31 -0.000335693H2299.1V303.448Z" fill="#71A463" fill-opacity="0.8"/>
<g clip-path="url(#clip1_37_1136)">
<path d="M0 2155H71.1111C142.222 2155 284.444 2155 426.667 2149.7C568.889 2144 711.111 2134 853.333 2101.7C995.556 2070 1137.78 2016 1280 1984.3C1422.22 1952 1564.44 1942 1706.67 1963C1848.89 1984 1991.11 2038 2133.33 2043C2275.56 2048 2417.78 2006 2488.89 1984.3L2560 1963V2187H2488.89C2417.78 2187 2275.56 2187 2133.33 2187C1991.11 2187 1848.89 2187 1706.67 2187C1564.44 2187 1422.22 2187 1280 2187C1137.78 2187 995.556 2187 853.333 2187C711.111 2187 568.889 2187 426.667 2187C284.444 2187 142.222 2187 71.1111 2187H0V2155Z" fill="#242E3B"/>
<path d="M0 2150.3H71.1111C142.222 2150.3 284.444 2150.3 426.667 2144.22C568.889 2137.68 711.111 2126.22 853.333 2089.17C995.556 2052.82 1137.78 1990.88 1280 1954.53C1422.22 1917.48 1564.44 1906.02 1706.67 1930.1C1848.89 1954.18 1991.11 2016.12 2133.33 2021.85C2275.56 2027.58 2417.78 1979.42 2488.89 1954.53L2560 1930.1V2187H2488.89C2417.78 2187 2275.56 2187 2133.33 2187C1991.11 2187 1848.89 2187 1706.67 2187C1564.44 2187 1422.22 2187 1280 2187C1137.78 2187 995.556 2187 853.333 2187C711.111 2187 568.889 2187 426.667 2187C284.444 2187 142.222 2187 71.1111 2187H0V2150.3Z" fill="#242E3B" fill-opacity="0.7"/>
<path d="M0 2150.24H78.3611C156.722 2150.24 313.444 2150.24 470.167 2144.15C626.889 2137.6 783.611 2126.12 940.333 2089.01C1097.06 2052.59 1253.78 1990.56 1410.5 1954.14C1567.22 1917.04 1723.94 1905.55 1880.67 1929.68C2037.39 1953.8 2194.11 2015.83 2350.83 2021.58C2507.56 2027.32 2664.28 1979.07 2742.64 1954.14L2821 1929.68V2187H2742.64C2664.28 2187 2507.56 2187 2350.83 2187C2194.11 2187 2037.39 2187 1880.67 2187C1723.94 2187 1567.22 2187 1410.5 2187C1253.78 2187 1097.06 2187 940.333 2187C783.611 2187 626.889 2187 470.167 2187C313.444 2187 156.722 2187 78.3611 2187H0V2150.24Z" fill="#242E3B" fill-opacity="0.5"/>
</g>
</g>
<defs>
<clipPath id="clip0_37_1136">
<rect width="2560" height="2187" fill="white"/>
</clipPath>
<clipPath id="clip1_37_1136">
<rect width="2560" height="367" fill="white" transform="translate(0 1820)"/>
</clipPath>
</defs>
</svg>
