<svg width="2560" height="869" viewBox="0 0 2560 869" fill="none" xmlns="http://www.w3.org/2000/svg">
<g clip-path="url(#clip0_40_1195)">
<path d="M0 31.9998L85.3333 53.2998C170.667 74.9998 341.333 117 512 154.7C682.667 192 853.333 224 1024 202.7C1194.67 181 1365.33 107 1536 79.9998C1706.67 52.9998 1877.33 74.9998 2048 74.6998C2218.67 74.9998 2389.33 52.9998 2474.67 42.6998L2560 31.9998V-0.000183105H2474.67C2389.33 -0.000183105 2218.67 -0.000183105 2048 -0.000183105C1877.33 -0.000183105 1706.67 -0.000183105 1536 -0.000183105C1365.33 -0.000183105 1194.67 -0.000183105 1024 -0.000183105C853.333 -0.000183105 682.667 -0.000183105 512 -0.000183105C341.333 -0.000183105 170.667 -0.000183105 85.3333 -0.000183105H0V31.9998Z" fill="#242E3B"/>
<path d="M-83 35.0999L2.33334 58.4633C87.6667 82.2655 258.333 128.334 429 169.686C599.667 210.6 770.333 245.7 941 222.336C1111.67 198.534 1282.33 117.366 1453 87.7499C1623.67 58.1343 1794.33 82.2655 1965 81.9365C2135.67 82.2655 2306.33 58.1343 2391.67 46.8365L2477 35.0999V-9.15527e-05H2391.67C2306.33 -9.15527e-05 2135.67 -9.15527e-05 1965 -9.15527e-05C1794.33 -9.15527e-05 1623.67 -9.15527e-05 1453 -9.15527e-05C1282.33 -9.15527e-05 1111.67 -9.15527e-05 941 -9.15527e-05C770.333 -9.15527e-05 599.667 -9.15527e-05 429 -9.15527e-05C258.333 -9.15527e-05 87.6667 -9.15527e-05 2.33334 -9.15527e-05H-83V35.0999Z" fill="#242E3B" fill-opacity="0.7"/>
<path d="M183 31.9998L268.333 53.2998C353.667 74.9998 524.333 117 695 154.7C865.667 192 1036.33 224 1207 202.7C1377.67 181 1548.33 107 1719 79.9998C1889.67 52.9998 2060.33 74.9998 2231 74.6998C2401.67 74.9998 2572.33 52.9998 2657.67 42.6998L2743 31.9998V-0.000183105H2657.67C2572.33 -0.000183105 2401.67 -0.000183105 2231 -0.000183105C2060.33 -0.000183105 1889.67 -0.000183105 1719 -0.000183105C1548.33 -0.000183105 1377.67 -0.000183105 1207 -0.000183105C1036.33 -0.000183105 865.667 -0.000183105 695 -0.000183105C524.333 -0.000183105 353.667 -0.000183105 268.333 -0.000183105H183V31.9998Z" fill="#242E3B" fill-opacity="0.5"/>
</g>
<defs>
<clipPath id="clip0_40_1195">
<rect width="2560" height="869" fill="white"/>
</clipPath>
</defs>
</svg>
