<svg width="2560" height="2187" viewBox="0 0 2560 2187" fill="none" xmlns="http://www.w3.org/2000/svg">
<g clip-path="url(#clip0_37_1136)">
<rect width="2560" height="2187" fill="#EDF2F6"/>
<path d="M2560 208.487L2452.96 222.43C2345.92 235.851 2131.83 264.518 1917.75 284.976C1703.67 306.216 1489.58 319.246 1275.5 271.034C1061.42 222.821 847.333 110.759 633.25 90.3009C419.167 69.0612 205.083 139.426 98.0416 173.696L-9.00005 208.487V-0.000338056H98.0416C205.083 -0.000338056 419.167 -0.000338056 633.25 -0.000338056C847.333 -0.000338056 1061.42 -0.000338056 1275.5 -0.000338056C1489.58 -0.000338056 1703.67 -0.000338056 1917.75 -0.000338056C2131.83 -0.000338056 2345.92 -0.000338056 2452.96 -0.000338056H2560V208.487Z" fill="#71A463"/>
<path d="M2560 246.166L2452.96 262.628C2345.92 278.475 2131.83 312.323 1917.75 336.478C1703.67 361.556 1489.58 376.942 1275.5 320.016C1061.42 263.09 847.333 130.776 633.25 106.621C419.167 81.5425 205.083 164.624 98.0416 205.087L-9.00005 246.166V-0.000101355H98.0416C205.083 -0.000101355 419.167 -0.000101355 633.25 -0.000101355C847.333 -0.000101355 1061.42 -0.000101355 1275.5 -0.000101355C1489.58 -0.000101355 1703.67 -0.000101355 1917.75 -0.000101355C2131.83 -0.000101355 2345.92 -0.000101355 2452.96 -0.000101355H2560V246.166Z" fill="#71A463" fill-opacity="0.5"/>
<path d="M2298.18 226.071L2202.05 241.189C2105.92 255.743 1913.65 286.827 1721.39 309.011C1529.12 332.042 1336.86 346.171 1144.59 293.892C952.327 241.613 760.062 120.1 567.796 97.9169C375.531 74.8859 183.266 151.185 87.133 188.345L-8.99972 226.071V-0.000121258H87.133C183.266 -0.000121258 375.531 -0.000121258 567.796 -0.000121258C760.062 -0.000121258 952.327 -0.000121258 1144.59 -0.000121258C1336.86 -0.000121258 1529.12 -0.000121258 1721.39 -0.000121258C1913.65 -0.000121258 2105.92 -0.000121258 2202.05 -0.000121258H2298.18V226.071Z" fill="#71A463" fill-opacity="0.8"/>
<g clip-path="url(#clip1_37_1136)">
<path d="M0 2155H71.1111C142.222 2155 284.444 2155 426.667 2149.7C568.889 2144 711.111 2134 853.333 2101.7C995.556 2070 1137.78 2016 1280 1984.3C1422.22 1952 1564.44 1942 1706.67 1963C1848.89 1984 1991.11 2038 2133.33 2043C2275.56 2048 2417.78 2006 2488.89 1984.3L2560 1963V2187H2488.89C2417.78 2187 2275.56 2187 2133.33 2187C1991.11 2187 1848.89 2187 1706.67 2187C1564.44 2187 1422.22 2187 1280 2187C1137.78 2187 995.556 2187 853.333 2187C711.111 2187 568.889 2187 426.667 2187C284.444 2187 142.222 2187 71.1111 2187H0V2155Z" fill="#242E3B"/>
<path d="M0 2150.3H71.1111C142.222 2150.3 284.444 2150.3 426.667 2144.22C568.889 2137.68 711.111 2126.22 853.333 2089.17C995.556 2052.82 1137.78 1990.88 1280 1954.53C1422.22 1917.48 1564.44 1906.02 1706.67 1930.1C1848.89 1954.18 1991.11 2016.12 2133.33 2021.85C2275.56 2027.58 2417.78 1979.42 2488.89 1954.53L2560 1930.1V2187H2488.89C2417.78 2187 2275.56 2187 2133.33 2187C1991.11 2187 1848.89 2187 1706.67 2187C1564.44 2187 1422.22 2187 1280 2187C1137.78 2187 995.556 2187 853.333 2187C711.111 2187 568.889 2187 426.667 2187C284.444 2187 142.222 2187 71.1111 2187H0V2150.3Z" fill="#242E3B" fill-opacity="0.7"/>
<path d="M0 2150.24H78.3611C156.722 2150.24 313.444 2150.24 470.167 2144.15C626.889 2137.6 783.611 2126.12 940.333 2089.01C1097.06 2052.59 1253.78 1990.56 1410.5 1954.14C1567.22 1917.04 1723.94 1905.55 1880.67 1929.68C2037.39 1953.8 2194.11 2015.83 2350.83 2021.58C2507.56 2027.32 2664.28 1979.07 2742.64 1954.14L2821 1929.68V2187H2742.64C2664.28 2187 2507.56 2187 2350.83 2187C2194.11 2187 2037.39 2187 1880.67 2187C1723.94 2187 1567.22 2187 1410.5 2187C1253.78 2187 1097.06 2187 940.333 2187C783.611 2187 626.889 2187 470.167 2187C313.444 2187 156.722 2187 78.3611 2187H0V2150.24Z" fill="#242E3B" fill-opacity="0.5"/>
</g>
</g>
<defs>
<clipPath id="clip0_37_1136">
<rect width="2560" height="2187" fill="white"/>
</clipPath>
<clipPath id="clip1_37_1136">
<rect width="2560" height="367" fill="white" transform="translate(0 1820)"/>
</clipPath>
</defs>
</svg>
