<svg width="1920" height="276" viewBox="0 0 1920 276" fill="none" xmlns="http://www.w3.org/2000/svg">
<g clip-path="url(#clip0_37_1183)">
<path d="M0 251.25H53.3333C106.667 251.25 213.333 251.25 320 247.275C426.667 243 533.333 235.5 640 211.275C746.667 187.5 853.333 147 960 123.225C1066.67 99.0002 1173.33 91.5002 1280 107.25C1386.67 123 1493.33 163.5 1600 167.25C1706.67 171 1813.33 139.5 1866.67 123.225L1920 107.25V275.25H1866.67C1813.33 275.25 1706.67 275.25 1600 275.25C1493.33 275.25 1386.67 275.25 1280 275.25C1173.33 275.25 1066.67 275.25 960 275.25C853.333 275.25 746.667 275.25 640 275.25C533.333 275.25 426.667 275.25 320 275.25C213.333 275.25 106.667 275.25 53.3333 275.25H0V251.25Z" fill="#242E3B"/>
<path d="M0 247.725H53.3333C106.667 247.725 213.333 247.725 320 243.166C426.667 238.263 533.333 229.662 640 201.879C746.667 174.612 853.333 128.163 960 100.896C1066.67 73.1133 1173.33 64.5118 1280 82.575C1386.67 100.638 1493.33 147.087 1600 151.388C1706.67 155.688 1813.33 119.562 1866.67 100.896L1920 82.575V275.25H1866.67C1813.33 275.25 1706.67 275.25 1600 275.25C1493.33 275.25 1386.67 275.25 1280 275.25C1173.33 275.25 1066.67 275.25 960 275.25C853.333 275.25 746.667 275.25 640 275.25C533.333 275.25 426.667 275.25 320 275.25C213.333 275.25 106.667 275.25 53.3333 275.25H0V247.725Z" fill="#242E3B" fill-opacity="0.7"/>
<path d="M0 247.68H58.7708C117.542 247.68 235.083 247.68 352.625 243.113C470.167 238.202 587.708 229.586 705.25 201.757C822.792 174.445 940.333 127.92 1057.87 100.608C1175.42 72.7794 1292.96 64.1636 1410.5 82.2567C1528.04 100.35 1645.58 146.875 1763.12 151.183C1880.67 155.491 1998.21 119.305 2056.98 100.608L2115.75 82.2567V275.25H2056.98C1998.21 275.25 1880.67 275.25 1763.12 275.25C1645.58 275.25 1528.04 275.25 1410.5 275.25C1292.96 275.25 1175.42 275.25 1057.87 275.25C940.333 275.25 822.792 275.25 705.25 275.25C587.708 275.25 470.167 275.25 352.625 275.25C235.083 275.25 117.542 275.25 58.7708 275.25H0V247.68Z" fill="#242E3B" fill-opacity="0.5"/>
</g>
<defs>
<clipPath id="clip0_37_1183">
<rect width="1920" height="275.25" fill="white"/>
</clipPath>
</defs>
</svg>
