<svg width="1920" height="269" viewBox="0 0 1920 269" fill="none" xmlns="http://www.w3.org/2000/svg">
<path d="M1920 156.511L1840 166.931C1760 176.962 1600 198.387 1440 213.677C1280 229.551 1120 239.289 960 203.256C800 167.223 640 83.4712 480 68.1816C320 52.3076 160 104.896 79.9999 130.509L-5.72205e-05 156.511V0.692926H79.9999C160 0.692926 320 0.692926 480 0.692926C640 0.692926 800 0.692926 960 0.692926C1120 0.692926 1280 0.692926 1440 0.692926C1600 0.692926 1760 0.692926 1840 0.692926H1920V156.511Z" fill="#71A463"/>
<path d="M1920 184.671L1840 196.975C1760 208.818 1600 234.115 1440 252.168C1280 270.911 1120 282.409 960 239.864C800 197.32 640 98.4314 480 80.3786C320 61.6359 160 123.728 79.9999 153.97L-5.72205e-05 184.671V0.69321H79.9999C160 0.69321 320 0.69321 480 0.69321C640 0.69321 800 0.69321 960 0.69321C1120 0.69321 1280 0.69321 1440 0.69321C1600 0.69321 1760 0.69321 1840 0.69321H1920V184.671Z" fill="#71A463" fill-opacity="0.5"/>
<path d="M1724.33 169.652L1652.48 180.952C1580.63 191.828 1436.94 215.06 1293.24 231.639C1149.55 248.852 1005.86 259.412 862.163 220.34C718.469 181.268 574.776 90.4528 431.082 73.8737C287.388 56.661 143.694 113.685 71.8471 141.457L0.000183105 169.652V0.693213H71.8471C143.694 0.693213 287.388 0.693213 431.082 0.693213C574.776 0.693213 718.469 0.693213 862.163 0.693213C1005.86 0.693213 1149.55 0.693213 1293.24 0.693213C1436.94 0.693213 1580.63 0.693213 1652.48 0.693213H1724.33V169.652Z" fill="#71A463" fill-opacity="0.8"/>
</svg>
