<svg width="2569" height="359" viewBox="0 0 2569 359" fill="none" xmlns="http://www.w3.org/2000/svg">
<path d="M2569 208.487L2461.96 222.43C2354.92 235.851 2140.83 264.518 1926.75 284.976C1712.67 306.216 1498.58 319.246 1284.5 271.034C1070.42 222.821 856.333 110.759 642.25 90.3009C428.167 69.0612 214.083 139.426 107.042 173.696L-5.34058e-05 208.487V-0.000338056H107.042C214.083 -0.000338056 428.167 -0.000338056 642.25 -0.000338056C856.333 -0.000338056 1070.42 -0.000338056 1284.5 -0.000338056C1498.58 -0.000338056 1712.67 -0.000338056 1926.75 -0.000338056C2140.83 -0.000338056 2354.92 -0.000338056 2461.96 -0.000338056H2569V208.487Z" fill="#71A463"/>
<path d="M2569 246.166L2461.96 262.628C2354.92 278.475 2140.83 312.323 1926.75 336.478C1712.67 361.556 1498.58 376.942 1284.5 320.016C1070.42 263.09 856.333 130.776 642.25 106.621C428.167 81.5425 214.083 164.624 107.042 205.087L-5.34058e-05 246.166V-0.000101355H107.042C214.083 -0.000101355 428.167 -0.000101355 642.25 -0.000101355C856.333 -0.000101355 1070.42 -0.000101355 1284.5 -0.000101355C1498.58 -0.000101355 1712.67 -0.000101355 1926.75 -0.000101355C2140.83 -0.000101355 2354.92 -0.000101355 2461.96 -0.000101355H2569V246.166Z" fill="#71A463" fill-opacity="0.5"/>
<path d="M2307.18 226.071L2211.05 241.189C2114.92 255.743 1922.65 286.827 1730.39 309.011C1538.12 332.042 1345.86 346.171 1153.59 293.892C961.327 241.613 769.062 120.1 576.796 97.9169C384.531 74.8859 192.266 151.185 96.1329 188.345L0.000221803 226.071V-0.000121258H96.1329C192.266 -0.000121258 384.531 -0.000121258 576.796 -0.000121258C769.062 -0.000121258 961.327 -0.000121258 1153.59 -0.000121258C1345.86 -0.000121258 1538.12 -0.000121258 1730.39 -0.000121258C1922.65 -0.000121258 2114.92 -0.000121258 2211.05 -0.000121258H2307.18V226.071Z" fill="#71A463" fill-opacity="0.8"/>
</svg>
